<svg width="24" height="24" viewBox="0 0 24 24" fill="none" xmlns="http://www.w3.org/2000/svg">
<path d="M15.3296 7.79102C14.216 7.96378 13.0641 8.05981 11.912 8.05981C10.7599 8.05981 9.60803 7.96378 8.4944 7.79102C6.40163 9.23102 5 11.9382 5 15.0678C5 19.695 8.0912 21.2502 11.912 21.2502C15.7328 21.2502 18.824 19.695 18.824 15.0678C18.824 11.9382 17.4223 9.23102 15.3296 7.79102ZM12.5841 17.679V18.3894C12.5841 18.543 12.4689 18.6582 12.3153 18.6582H11.528C11.3744 18.6582 11.2592 18.543 11.2592 18.3894V17.6982C10.4528 17.6022 9.80008 16.9494 9.72321 16.1237C9.72321 16.047 9.74237 15.9701 9.79996 15.9125C9.85755 15.8549 9.93442 15.8165 10.0112 15.8165H10.8176C10.952 15.8165 11.0479 15.9125 11.0864 16.0277C11.1248 16.2197 11.2976 16.3732 11.5088 16.3732H12.2C12.5648 16.3732 12.872 16.1044 12.9103 15.7781C12.9295 15.586 12.8719 15.3941 12.7376 15.2596C12.6031 15.1252 12.4303 15.0484 12.2384 15.0484H11.72C10.6448 15.0484 9.72322 14.2612 9.62719 13.2436C9.53116 12.1875 10.2417 11.266 11.2593 11.0739V10.3827C11.2593 10.2291 11.3744 10.1139 11.528 10.1139H12.3153C12.4689 10.1139 12.5841 10.2291 12.5841 10.3827V11.0739C13.4096 11.17 14.0432 11.8227 14.1201 12.6484C14.1201 12.7252 14.101 12.802 14.0434 12.8596C13.9858 12.9172 13.9089 12.9556 13.8322 12.9556H13.0258C12.8913 12.9556 12.7761 12.8596 12.757 12.7444C12.7185 12.5524 12.5458 12.3989 12.3346 12.3989H11.6434C11.2785 12.3989 10.9713 12.6677 10.933 12.9941C10.9139 13.1861 10.9714 13.378 11.1058 13.5125C11.2402 13.647 11.413 13.7429 11.6049 13.7429H12.2001C12.7568 13.7429 13.3137 13.9925 13.6977 14.3956C14.0817 14.818 14.2737 15.3748 14.2161 15.9508C14.1393 16.7766 13.4672 17.487 12.5841 17.679V17.679Z" fill="#272525"/>
<path d="M8.99328 6.46579C9.89568 6.60026 10.8748 6.677 11.9117 6.677C12.9484 6.677 13.9278 6.60026 14.8302 6.46579L15.5596 3.89303C15.7133 3.35543 15.2141 2.87543 14.6764 3.02906C12.8717 3.60496 10.9516 3.60496 9.14678 3.04821C8.60918 2.87544 8.11005 3.37459 8.26351 3.91218L8.99328 6.46579Z" fill="#272525"/>
</svg>
