<svg width="24" height="24" viewBox="0 0 24 24" fill="none" xmlns="http://www.w3.org/2000/svg">
<path d="M5.93472 11.4819L5.89378 11.3867H3.05566L3.24969 11.6383L3.24953 11.6385C4.17401 12.8396 5.51918 13.6462 7.01433 13.8954L7.39125 13.9588L7.16617 13.6495H7.16632C6.67491 12.9761 6.2616 12.2489 5.93471 11.4819L5.93472 11.4819Z" fill="#272525"/>
<path d="M9.50284 11.3867H6.48828L6.59259 11.6091C6.93798 12.3418 7.36805 13.0315 7.87424 13.6639L7.99627 13.817L8.11831 13.6639C8.62445 13.0318 9.05455 12.3421 9.39915 11.6091L9.50284 11.3867Z" fill="#272525"/>
<path d="M10.0971 11.3867L10.0562 11.4819C9.72927 12.249 9.31611 12.9761 8.8247 13.6496L8.59961 13.9589L8.97653 13.8956V13.8954C10.4706 13.6438 11.8148 12.8379 12.7407 11.6388L12.9364 11.3869L10.0971 11.3867Z" fill="#272525"/>
<path d="M10.7687 8.40066C10.7328 9.16139 10.5988 9.91429 10.3703 10.6408L10.3057 10.8443H13.2605L13.305 10.7619V10.7618C13.6921 10.0374 13.9197 9.23856 13.9723 8.41884L13.9839 8.25195L10.7759 8.25211L10.7687 8.40066Z" fill="#272525"/>
<path d="M5.77879 8.41695C5.82474 9.20892 5.98128 9.99064 6.24353 10.7395L6.28008 10.8441H9.71248L9.74903 10.7395C10.0129 9.9908 10.1674 9.20828 10.2078 8.41571L10.2158 8.25195H5.76953L5.77879 8.41695Z" fill="#272525"/>
<path d="M5.62142 10.6407C5.39288 9.91411 5.25877 9.16122 5.22254 8.40049L5.21517 8.25195H2L2.01286 8.41994C2.07168 9.23777 2.29881 10.0348 2.68011 10.7608L2.72403 10.8441H5.68622L5.62142 10.6407Z" fill="#272525"/>
<path d="M5.22256 7.55885C5.25879 6.79812 5.3929 6.04507 5.62144 5.31867L5.68606 5.11523H2.72403L2.68011 5.19852C2.2988 5.92443 2.07153 6.72142 2.01286 7.53925L2 7.70724L5.21517 7.70739L5.22256 7.55885Z" fill="#272525"/>
<path d="M10.2077 7.54347C10.1672 6.75091 10.0127 5.96834 9.74887 5.21986L9.71232 5.11523H6.27992L6.24338 5.21986C5.98096 5.96854 5.82457 6.75026 5.77863 7.54239L5.76953 7.7074H10.2158L10.2077 7.54347Z" fill="#272525"/>
<path d="M10.3712 5.31869C10.5999 6.04508 10.7337 6.79798 10.7697 7.55886L10.777 7.7074H13.985L13.9734 7.54051H13.9732C13.9208 6.7208 13.6933 5.92193 13.306 5.19758L13.2614 5.11523H10.3066L10.3712 5.31869Z" fill="#272525"/>
<path d="M10.0561 4.47702L10.0971 4.57223H12.9366L12.7408 4.32033H12.7407C11.8149 3.12088 10.4707 2.31481 8.97653 2.06337L8.59961 2L8.8247 2.30931V2.30916C9.31611 2.98267 9.72941 3.71002 10.0562 4.47701L10.0561 4.47702Z" fill="#272525"/>
<path d="M6.48828 4.57303H9.50284L9.39916 4.35061C9.05455 3.61763 8.62446 2.92794 8.11831 2.29567L7.99628 2.14258L7.87424 2.29567C7.36794 2.92794 6.93784 3.61779 6.59259 4.35061L6.48828 4.57303Z" fill="#272525"/>
<path d="M5.93521 4.47717C6.26209 3.71014 6.67526 2.98282 7.16683 2.30931L7.39191 2L7.015 2.06337L7.01484 2.06352C5.51973 2.31261 4.1744 3.11931 3.25004 4.32081L3.05664 4.5724H5.89427L5.93521 4.47717Z" fill="#272525"/>
<path d="M21.7373 19.9883H19.6552L19.6171 20.1379H19.6173C19.5975 20.2137 19.5873 20.2916 19.5869 20.3701C19.5869 20.7663 19.7984 21.1326 20.1417 21.3309C20.4848 21.529 20.9077 21.529 21.251 21.3309C21.5943 21.1326 21.8056 20.7663 21.8056 20.3701C21.8054 20.2916 21.7952 20.2137 21.7755 20.1379L21.7373 19.9883Z" fill="#272525"/>
<path d="M14.4766 19.9883H12.3945L12.3563 20.1379H12.3565C12.3366 20.2137 12.3264 20.2916 12.3262 20.3701C12.3262 20.7663 12.5377 21.1326 12.8808 21.3309C13.224 21.529 13.647 21.529 13.9903 21.3309C14.3334 21.1326 14.5449 20.7663 14.5449 20.3701C14.5447 20.2916 14.5345 20.2137 14.5147 20.1379L14.4766 19.9883Z" fill="#272525"/>
<path d="M22.3691 17.0332C21.8842 16.9342 21.4387 16.6961 21.0868 16.3483C20.7369 15.998 20.4985 15.5519 20.4019 15.0662L20.3701 14.9062H18.1396V19.2961H22.5291V17.065L22.3691 17.0332Z" fill="#272525"/>
<path d="M11.6025 12.7266H17.448V19.2954H11.6025V12.7266Z" fill="#272525"/>
</svg>
