<svg width="15" height="17" viewBox="0 0 15 17" fill="none" xmlns="http://www.w3.org/2000/svg">
<path d="M10.5714 12.6857H14.8L10.5714 16.9143V12.6857ZM9.51429 12.1571V16.9143H1.05714C0.473358 16.9143 0 16.4414 0 15.8571V1.05714C0 0.472875 0.473358 0 1.05714 0H13.7429C14.3272 0 14.8 0.472875 14.8 1.05714V11.6286H10.0429C9.75073 11.6286 9.51429 11.865 9.51429 12.1571ZM2.11429 3.7C2.11429 3.99213 2.35073 4.22857 2.64286 4.22857H12.1571C12.4493 4.22857 12.6857 3.99213 12.6857 3.7C12.6857 3.40787 12.4493 3.17143 12.1571 3.17143H2.64286C2.35073 3.17143 2.11429 3.40787 2.11429 3.7ZM2.11429 6.87143C2.11429 7.16356 2.35073 7.4 2.64286 7.4H12.1571C12.4493 7.4 12.6857 7.16356 12.6857 6.87143C12.6857 6.5793 12.4493 6.34286 12.1571 6.34286H2.64286C2.35073 6.34286 2.11429 6.5793 2.11429 6.87143ZM12.1571 10.5714C12.4493 10.5714 12.6857 10.335 12.6857 10.0429C12.6857 9.75073 12.4493 9.51429 12.1571 9.51429H2.64286C2.35073 9.51429 2.11429 9.75073 2.11429 10.0429C2.11429 10.335 2.35073 10.5714 2.64286 10.5714H12.1571Z" fill="#272525"/>
</svg>
