<svg width="50" height="50" viewBox="0 0 50 50" fill="none" xmlns="http://www.w3.org/2000/svg">
<circle cx="25" cy="25" r="25" fill="#FFF4E8"/>
<path d="M41.5012 32.2994V35.0994H10V32.1362C9.99844 31.5103 10.2766 30.9166 10.7585 30.517C12.4582 29.1454 14.2866 27.9409 16.2176 26.9204C16.3424 27.2117 17.552 29.9925 18.3232 31.1668V31.1666C18.3339 31.1887 18.3562 31.2027 18.3808 31.2027C18.4053 31.2027 18.4277 31.1887 18.4384 31.1666C18.5951 30.6963 19.2 29.0641 20.1183 29.1762H20.1185C20.1473 29.1849 20.1781 29.171 20.1908 29.1438C20.2035 29.1168 20.1946 29.0842 20.1696 29.0675C19.4752 28.5139 17.7151 27.0898 17.0464 26.2963V24.3795C16.7486 23.8733 16.5457 23.317 16.448 22.7378C16.2176 22.7186 15.9167 22.3985 15.5904 21.2499C15.1712 19.7715 15.5647 19.4771 15.9455 19.4802C15.7439 18.6162 15.2319 15.6146 17.4656 14.2514C17.1971 14.0246 17.0415 13.6911 17.0399 13.3396C17.0399 13.3396 19.6 13.6275 20.8192 13.3748C22.0384 13.1219 23.3792 14.0884 23.5872 15.0197C23.5872 15.0197 26.0863 15.0197 25.117 19.4838C25.5074 19.4677 25.933 19.7367 25.5009 21.2534C25.1808 22.4023 24.8609 22.7255 24.6433 22.7414V22.7411C24.546 23.3204 24.3431 23.8766 24.0448 24.3827V26.2836C23.3727 27.0771 21.616 28.5043 20.9185 29.0548C20.8935 29.0715 20.8843 29.1039 20.8973 29.1311C20.91 29.1584 20.9408 29.1722 20.9696 29.1635C21.8879 29.0514 22.4928 30.6802 22.6495 31.1539C22.6602 31.176 22.6827 31.1901 22.7071 31.1901C22.7316 31.1901 22.7542 31.176 22.7649 31.1539C23.5361 29.9796 24.7457 27.1988 24.8705 26.9075C26.17 27.5997 27.4259 28.3711 28.6303 29.218C29.0361 29.0827 29.4316 28.9194 29.8145 28.7283L29.8848 28.6868C30.0846 28.5575 30.2049 28.3359 30.2049 28.0979V26.9044C27.0464 26.9332 26.1154 25.5796 26.1154 25.5796C26.1154 25.5796 27.9203 25.5508 27.8083 20.7796C27.696 16.0084 29.8752 15.2372 30.6944 14.9396C33.0784 14.034 34.2752 15.4739 34.2752 15.4739C37.04 15.2179 37.7953 18.2387 37.4752 21.6757C37.1551 25.1125 39.0241 25.65 39.0241 25.65C37.7281 26.9748 34.9922 26.8915 34.9922 26.8915V28.1237H34.9919C34.9919 28.3616 35.1122 28.5833 35.312 28.7125L35.3953 28.7636C36.3553 29.2661 38.3265 29.7877 38.3649 29.8069C39.01 29.9819 39.637 30.2188 40.2368 30.5141C40.94 30.8491 41.4185 31.5252 41.5009 32.2996L41.5012 32.2994Z" fill="#F29425"/>
</svg>
