<svg width="15" height="19" viewBox="0 0 15 19" fill="none" xmlns="http://www.w3.org/2000/svg">
<path fill-rule="evenodd" clip-rule="evenodd" d="M14.0188 13.5878L14.0194 0.860608L5.44493 0.898649V2.0454H12.8343V13.5879L14.0188 13.5878ZM11.9735 15.6332L11.9741 2.90593L3.39961 2.94397V4.09073H10.789V15.6332L11.9735 15.6332ZM9.15119 10.8734C9.15119 8.7986 7.46929 7.11674 5.39457 7.11674C3.31981 7.11674 1.63795 8.79875 1.63795 10.8734C1.63795 12.9478 3.3197 14.63 5.39457 14.63C7.46918 14.63 9.15119 12.948 9.15119 10.8734ZM14.88 0V14.4863H12.8347V16.5316H10.7894V17.1006L9.36957 18.5202L8.37109 17.5219L7.35853 18.5178L6.37111 17.5304L5.3669 18.5178L4.37962 17.5304L3.37526 18.5178L2.38196 17.5244L1.3862 18.5203L0 17.1344V4.09076H2.50106V2.04543H4.54653V0.00011025L14.88 0ZM6.6796 11.1133C6.96109 11.6593 6.84582 12.4708 6.32965 12.8592C6.16816 12.9807 5.97395 13.057 5.77143 13.0974L5.83903 13.6203H4.9258L4.99542 13.0816C4.80207 13.0335 4.62035 12.9501 4.46906 12.8263C4.17925 12.5898 4.02909 12.2364 3.96048 11.8761L4.65566 11.7192C4.71566 12.0921 4.9927 12.3868 5.40338 12.3868C5.63492 12.3868 5.80932 12.328 5.92673 12.2103C6.07673 12.06 6.15539 11.8328 6.07443 11.6335C5.96821 11.3724 5.64409 11.2966 5.3919 11.2219C5.10711 11.1376 4.81112 11.0625 4.56653 10.8936C3.83703 10.3903 3.88815 9.17325 4.73289 8.8049C4.81916 8.76715 4.91017 8.74188 5.00276 8.72236L4.92581 8.12637H5.83904L5.76081 8.73254C5.91268 8.76771 6.05924 8.82154 6.18913 8.90364C6.46373 9.07733 6.61246 9.35478 6.67775 9.65177L5.94855 9.79617C5.91338 9.69268 5.85769 9.59622 5.77099 9.52646C5.66965 9.44536 5.53501 9.40803 5.40239 9.40387C5.16511 9.39612 4.85504 9.4577 4.7645 9.69684C4.7144 9.82905 4.74828 9.98278 4.84933 10.0849C4.9402 10.1764 5.16039 10.2716 5.51019 10.3708C5.85985 10.47 6.11868 10.5727 6.28631 10.6787C6.45383 10.7848 6.58488 10.9296 6.67962 11.1133L6.6796 11.1133Z" fill="#272525"/>
</svg>
