<svg width="29" height="21" viewBox="0 0 29 21" fill="none" xmlns="http://www.w3.org/2000/svg">
<path d="M27.2192 6.05812L9.39556 20.3921C8.71783 20.9374 7.7226 20.8425 7.16263 20.1791L0.760489 12.5934C-0.0409584 11.6439 0.0877298 10.2311 1.04768 9.43938C2.00713 8.64865 3.43314 8.77748 4.2321 9.72754L7.76086 13.9217C8.32033 14.587 9.31606 14.6834 9.99478 14.137L24.3647 2.58146C25.3346 1.80155 26.7596 1.9476 27.5476 2.90749C28.3362 3.86738 28.1891 5.27821 27.2192 6.05812Z" fill="#17AC4A"/>
<path d="M27.2192 4.41945L9.39556 18.7534C8.71783 19.2987 7.7226 19.2038 7.16263 18.5405L0.760489 10.9548C-0.0409584 10.0052 0.0877298 8.59242 1.04768 7.8007C2.00713 7.00997 3.43314 7.13881 4.2321 8.08887L7.76086 12.283C8.32033 12.9483 9.31606 13.0447 9.99478 12.4984L24.3647 0.942792C25.3346 0.16288 26.7596 0.30893 27.5476 1.26882C28.3362 2.22871 28.1891 3.63954 27.2192 4.41945Z" fill="white"/>
</svg>
