<svg width="24" height="24" viewBox="0 0 24 24" fill="none" xmlns="http://www.w3.org/2000/svg">
<path d="M11.6768 3H11.6766C8.19047 3 5.3691 5.8212 5.3691 9.30651C5.3691 9.74218 5.41316 10.167 5.49713 10.5773C5.53731 10.7736 5.58686 10.9664 5.64486 11.1555V11.1556C5.67271 11.2171 5.66856 11.2884 5.63361 11.3461C5.63066 11.351 5.62744 11.3557 5.62423 11.3604C5.62302 11.3624 5.62182 11.3643 5.62061 11.3662L4.09891 13.5215C4.09369 13.5298 4.08793 13.5377 4.08163 13.5452C4.07574 13.5524 4.06958 13.5593 4.06275 13.5655C3.98722 13.6463 3.97985 13.763 4.04079 13.8507C4.56217 14.0259 4.87074 14.5762 4.74258 15.1148V15.115C4.7383 15.1491 4.72544 15.1817 4.70522 15.2096C4.65004 15.288 4.64214 15.3588 4.65874 15.4207C4.67388 15.4771 4.71071 15.5297 4.78263 15.5692C4.81557 15.5798 4.8453 15.5987 4.86901 15.6239C4.90879 15.6633 4.93075 15.7174 4.92968 15.7734C4.92861 15.8293 4.9045 15.8824 4.86325 15.9203C4.82896 15.9842 4.82521 16.0428 4.83914 16.0949C4.85508 16.1545 4.89566 16.2097 4.97602 16.2497C5.67685 16.4478 6.10357 17.1586 5.92824 17.8539C5.92462 17.877 5.91699 17.8993 5.90587 17.92C5.9044 17.9225 5.90292 17.9251 5.90145 17.9276C5.73297 18.2193 5.8314 18.5863 6.1231 18.7546C6.19194 18.7944 6.26453 18.8184 6.33792 18.8291H6.33805C6.34716 18.8299 6.35613 18.8313 6.36511 18.8334C6.37542 18.8351 6.3856 18.8376 6.39564 18.841C8.12882 19.3003 9.88216 19.0167 11.3215 18.186C11.3551 18.166 11.3938 18.156 11.4329 18.1573C11.5248 18.1604 11.6033 18.2241 11.6248 18.3135C11.6465 18.4027 11.6061 18.4953 11.526 18.5402C11.27 18.6879 11.0045 18.8189 10.7314 18.9331C10.7358 18.9481 10.7385 18.9637 10.7394 18.9792L10.9092 21.5875C12.801 22.0765 14.7057 21.759 16.2917 20.8388L16.1156 17.8175L15.6283 17.8146V17.8144C15.6083 17.8207 15.5877 17.8239 15.5668 17.8239H9.05456C8.94166 17.8239 8.85018 17.7323 8.85018 17.6196V12.8453C8.85018 12.7909 8.87161 12.7389 8.90992 12.7005C8.94835 12.6621 9.00032 12.6405 9.05456 12.6405H11.0209V10.6748C11.021 10.5619 11.1125 10.4705 11.2253 10.4703H13.1916V8.50466C13.1916 8.45042 13.2131 8.39832 13.2515 8.36002C13.2898 8.32158 13.3418 8.30002 13.396 8.29989H15.5669H15.5674H15.5681L16.31 8.30564V8.30578C16.4224 8.30658 16.5129 8.39806 16.5128 8.51042V9.35402C16.8468 9.44349 17.1656 9.57876 17.4632 9.75743L17.9836 9.2248C17.9394 5.77771 15.1354 3.00057 11.6768 3.00057L11.6768 3ZM14.0848 5.25641C14.0922 5.25681 14.0994 5.25748 14.1066 5.25855C14.1664 5.26592 14.2198 5.299 14.2527 5.34909C14.2538 5.35056 14.2548 5.35204 14.2557 5.35351C14.2569 5.35565 14.2581 5.35779 14.2593 5.35994C14.2735 5.38431 14.2825 5.41123 14.2858 5.43909L14.4696 6.12268C14.4848 6.17545 14.4783 6.2321 14.4514 6.28004C14.4243 6.32785 14.3793 6.36281 14.3263 6.37714C14.2732 6.39134 14.2166 6.3837 14.1693 6.35585C14.122 6.32799 14.0879 6.28219 14.0746 6.22888L14.0216 6.03201C12.8808 8.14339 10.9926 9.83224 8.57084 10.6476V10.6477C8.51928 10.6658 8.46249 10.6624 8.41334 10.6384C8.36432 10.6145 8.32682 10.5717 8.30927 10.5199C8.29186 10.4681 8.29588 10.4114 8.32052 10.3626C8.34517 10.3137 8.38843 10.2768 8.44039 10.26C10.7836 9.47071 12.6027 7.83185 13.6933 5.77882L13.4092 5.85462C13.3565 5.86989 13.2997 5.86319 13.2519 5.83614C13.2041 5.80909 13.1691 5.76382 13.1549 5.71078C13.1409 5.65761 13.1486 5.6011 13.1766 5.55382C13.2046 5.50654 13.2505 5.47253 13.304 5.4594L13.9953 5.27471C14.0232 5.26213 14.0536 5.25583 14.0841 5.2565L14.0848 5.25641ZM13.6005 8.70864V17.4148H15.3622V8.70864H13.6005ZM15.7712 8.71011V11.3361C16.6617 11.3375 17.3703 12.1198 17.3703 13.0596C17.3703 13.9994 16.6617 14.7817 15.7712 14.7827V17.4063L16.1039 17.4092V16.6202C16.1039 16.5239 16.1711 16.4408 16.2651 16.4203C16.6653 16.334 17.047 16.1736 17.3912 15.9466C17.4729 15.8928 17.5814 15.9044 17.65 15.9744L18.189 16.5258L18.952 15.7453L18.4049 15.1855H18.4048C18.3382 15.1176 18.3273 15.0128 18.3782 14.9326C18.6017 14.5808 18.7606 14.1898 18.8468 13.7792H18.8469C18.8667 13.6845 18.9503 13.6167 19.0471 13.6167H19.8125V12.5082H19.0443C18.9473 12.5082 18.8636 12.4401 18.8441 12.345C18.7594 11.9339 18.6019 11.5426 18.3798 11.1899C18.3293 11.1099 18.3404 11.0055 18.4067 10.9378L18.9519 10.3798L18.1889 9.59955L17.6481 10.1527C17.5794 10.2229 17.4705 10.2342 17.3888 10.18C17.0456 9.95165 16.6647 9.78987 16.2646 9.70203C16.1707 9.6814 16.1039 9.5981 16.1039 9.50207V8.71309L15.7712 8.71011ZM16.273 10.2115V10.2113C16.2935 10.2117 16.3139 10.2152 16.3333 10.2216C16.5173 10.2794 16.6925 10.3552 16.8578 10.4469H16.8579C16.9053 10.4731 16.9404 10.5172 16.9554 10.5694C16.9704 10.6215 16.964 10.6775 16.9377 10.7251C16.9114 10.7725 16.8673 10.8076 16.8151 10.8226C16.763 10.8374 16.707 10.8311 16.6594 10.8048C16.518 10.7263 16.368 10.6615 16.2108 10.6122C16.1125 10.5832 16.0507 10.4859 16.0664 10.3845C16.0821 10.2832 16.1705 10.2092 16.2729 10.2113L16.273 10.2115ZM11.4295 10.8788V17.4147H13.1915V10.8788H11.4295ZM17.5526 11.0914L17.5525 11.0912C17.615 11.0919 17.6737 11.1211 17.712 11.1704C17.8292 11.3168 17.9327 11.4748 18.0208 11.6421C18.0734 11.742 18.035 11.8657 17.9351 11.9184C17.835 11.971 17.7114 11.9326 17.6588 11.8325C17.5827 11.6882 17.4935 11.552 17.3925 11.4258C17.3419 11.3645 17.3316 11.2793 17.3659 11.2076C17.4002 11.1358 17.473 11.0904 17.5525 11.0912L17.5526 11.0914ZM15.7711 11.7451V14.3734C16.4212 14.3719 16.961 13.796 16.961 13.0594C16.961 12.3228 16.4212 11.7461 15.7711 11.7451ZM18.1447 12.5536C18.2521 12.5518 18.3425 12.6335 18.3517 12.7405C18.3715 12.9365 18.3726 13.1372 18.3532 13.3408C18.3496 13.396 18.3239 13.4474 18.2817 13.4833C18.2396 13.5191 18.1847 13.5364 18.1297 13.5311C18.0746 13.5259 18.024 13.4986 17.9895 13.4553C17.9549 13.4122 17.9392 13.3568 17.9462 13.302C17.9631 13.1252 17.9621 12.9512 17.9447 12.7817V12.7815C17.9382 12.7242 17.9561 12.6667 17.9941 12.6234C18.0322 12.5798 18.087 12.5545 18.1447 12.5536L18.1447 12.5536ZM9.2585 13.049V17.4146H11.0205V13.049H9.2585ZM17.8323 14.1658H17.8325C17.9057 14.1638 17.9744 14.201 18.0127 14.2636C18.051 14.326 18.0529 14.4042 18.0177 14.4685C17.9282 14.6383 17.8231 14.7978 17.7048 14.9453C17.6715 14.9893 17.6218 15.018 17.5669 15.0247C17.5121 15.0315 17.4569 15.0158 17.4138 14.9812C17.3708 14.9466 17.3435 14.8961 17.3383 14.8411C17.333 14.7862 17.3503 14.7314 17.3861 14.6892C17.4881 14.5621 17.5784 14.4243 17.6557 14.2776C17.6896 14.2109 17.7572 14.1682 17.8321 14.1659H17.8323H17.8325L17.8323 14.1658ZM16.749 15.2854L16.7491 15.2856C16.7538 15.2854 16.7586 15.2854 16.7633 15.2856C16.8552 15.2896 16.933 15.3543 16.9537 15.4439C16.9744 15.5333 16.9329 15.6257 16.8521 15.6697C16.6888 15.7614 16.5163 15.8376 16.3367 15.8962V15.896C16.285 15.913 16.2288 15.9086 16.1803 15.8841C16.1318 15.8595 16.0951 15.8166 16.0784 15.7649C16.0615 15.7132 16.0661 15.657 16.0907 15.6085C16.1155 15.5601 16.1585 15.5234 16.2102 15.5068C16.3638 15.4569 16.5115 15.3918 16.6516 15.313C16.6813 15.2957 16.7148 15.2864 16.7491 15.2854L16.749 15.2854Z" fill="#272525"/>
</svg>
