<svg width="17" height="17" viewBox="0 0 17 17" fill= 'none' xmlns="http://www.w3.org/2000/svg">
<path d="M8.00002 2.50005V5.50005C7.99895 6.16272 7.73524 6.79793 7.26662 7.26655C6.798 7.73517 6.16279 7.99886 5.50011 7.99996H2.50011C1.8373 7.99888 1.20209 7.73518 0.733474 7.26655C0.264857 6.79793 0.00116568 6.16272 6.85338e-05 5.50005V2.50005C0.00113996 1.83723 0.264847 1.20202 0.733474 0.733406C1.2021 0.264789 1.8373 0.00109714 2.50011 0H5.50011C6.16279 0.00107143 6.798 0.264778 7.26662 0.733406C7.73523 1.20202 7.99893 1.83723 8.00002 2.50005ZM14.3 0H11.3C10.6373 0.00107143 10.0021 0.264778 9.53352 0.733406C9.0649 1.20202 8.80121 1.83723 8.80011 2.50005V5.50005C8.80119 6.16272 9.06489 6.79793 9.53352 7.26655C10.0021 7.73517 10.6373 7.99886 11.3 7.99996H14.3C14.9628 7.99888 15.598 7.73518 16.0667 7.26655C16.5353 6.79793 16.799 6.16272 16.8001 5.50005V2.50005C16.799 1.83723 16.5353 1.20202 16.0667 0.733406C15.598 0.264789 14.9628 0.00109714 14.3 0ZM5.49991 8.80011H2.50005C1.83723 8.80119 1.20202 9.06489 0.733406 9.53352C0.264789 10.0021 0.00109714 10.6373 0 11.3V14.3C0.00107143 14.9628 0.264778 15.598 0.733406 16.0667C1.20203 16.5353 1.83723 16.799 2.50005 16.8001H5.50005C6.16272 16.799 6.79793 16.5353 7.26655 16.0667C7.73517 15.598 7.99886 14.9628 7.99995 14.3V11.3C7.99888 10.6373 7.73518 10.0021 7.26655 9.53352C6.79793 9.0649 6.16272 8.80121 5.50005 8.80011H5.49991ZM14.3 8.80011H11.3C10.6373 8.80119 10.0021 9.06489 9.53352 9.53352C9.0649 10.0021 8.80121 10.6373 8.80011 11.3V14.3C8.80119 14.9628 9.06489 15.598 9.53352 16.0667C10.0021 16.5353 10.6373 16.799 11.3 16.8001H14.3C14.9628 16.799 15.598 16.5353 16.0667 16.0667C16.5353 15.598 16.799 14.9628 16.8001 14.3V11.3C16.799 10.6373 16.5353 10.0021 16.0667 9.53352C15.598 9.0649 14.9628 8.80121 14.3 8.80011Z" fill="#272525"/>
</svg>
