<svg width="15" height="15" viewBox="0 0 15 15" fill="none" xmlns="http://www.w3.org/2000/svg">
<path d="M14.1 0.6H12V0.3C12 0.134331 11.8657 0 11.7 0C11.5343 0 11.4 0.134331 11.4 0.3V0.6H9V0.3C9 0.134331 8.86567 0 8.7 0C8.53433 0 8.4 0.134331 8.4 0.3V0.6H6V0.3C6 0.134331 5.86567 0 5.7 0C5.53433 0 5.4 0.134331 5.4 0.3V0.6H3V0.3C3 0.134331 2.86567 0 2.7 0C2.53433 0 2.4 0.134331 2.4 0.3V0.6H0.3C0.134331 0.6 0 0.734331 0 0.9V13.8C0 13.8796 0.0316073 13.9559 0.0878571 14.0121C0.144107 14.0684 0.220447 14.1 0.3 14.1H7.2V7.2C7.2 7.03433 7.33433 6.9 7.5 6.9H8.7V6.6C8.7 6.27844 8.87156 5.98138 9.15 5.82055C9.42844 5.65983 9.77157 5.65983 10.05 5.82055C10.3284 5.9814 10.5 6.27843 10.5 6.6V6.9H14.4V0.9C14.4 0.820447 14.3684 0.744106 14.3121 0.687857C14.2559 0.631608 14.1796 0.6 14.1 0.6ZM3.3 10.2H2.1C1.93433 10.2 1.8 10.0657 1.8 9.9C1.8 9.73433 1.93433 9.6 2.1 9.6H3.3C3.46567 9.6 3.6 9.73433 3.6 9.9C3.6 10.0657 3.46567 10.2 3.3 10.2ZM3.3 8.4H2.1C1.93433 8.4 1.8 8.26567 1.8 8.1C1.8 7.93433 1.93433 7.8 2.1 7.8H3.3C3.46567 7.8 3.6 7.93433 3.6 8.1C3.6 8.26567 3.46567 8.4 3.3 8.4ZM3.3 6.6H2.1C1.93433 6.6 1.8 6.46567 1.8 6.3C1.8 6.13433 1.93433 6 2.1 6H3.3C3.46567 6 3.6 6.13433 3.6 6.3C3.6 6.46567 3.46567 6.6 3.3 6.6ZM3.3 4.8H2.1C1.93433 4.8 1.8 4.66567 1.8 4.5C1.8 4.33433 1.93433 4.2 2.1 4.2H3.3C3.46567 4.2 3.6 4.33433 3.6 4.5C3.6 4.66567 3.46567 4.8 3.3 4.8ZM6.3 10.2H5.1C4.93433 10.2 4.8 10.0657 4.8 9.9C4.8 9.73433 4.93433 9.6 5.1 9.6H6.3C6.46567 9.6 6.6 9.73433 6.6 9.9C6.6 10.0657 6.46567 10.2 6.3 10.2ZM6.3 8.4H5.1C4.93433 8.4 4.8 8.26567 4.8 8.1C4.8 7.93433 4.93433 7.8 5.1 7.8H6.3C6.46567 7.8 6.6 7.93433 6.6 8.1C6.6 8.26567 6.46567 8.4 6.3 8.4ZM6.3 6.6H5.1C4.93433 6.6 4.8 6.46567 4.8 6.3C4.8 6.13433 4.93433 6 5.1 6H6.3C6.46567 6 6.6 6.13433 6.6 6.3C6.6 6.46567 6.46567 6.6 6.3 6.6ZM6.3 4.8H5.1C4.93433 4.8 4.8 4.66567 4.8 4.5C4.8 4.33433 4.93433 4.2 5.1 4.2H6.3C6.46567 4.2 6.6 4.33433 6.6 4.5C6.6 4.66567 6.46567 4.8 6.3 4.8ZM9.3 4.8H8.1C7.93433 4.8 7.8 4.66567 7.8 4.5C7.8 4.33433 7.93433 4.2 8.1 4.2H9.3C9.46567 4.2 9.6 4.33433 9.6 4.5C9.6 4.66567 9.46567 4.8 9.3 4.8ZM12.3 4.8H11.1C10.9343 4.8 10.8 4.66567 10.8 4.5C10.8 4.33433 10.9343 4.2 11.1 4.2H12.3C12.4657 4.2 12.6 4.33433 12.6 4.5C12.6 4.66567 12.4657 4.8 12.3 4.8ZM13.8 2.4H0.6V1.2H2.4V1.5C2.4 1.66567 2.53433 1.8 2.7 1.8C2.86567 1.8 3 1.66567 3 1.5V1.2H5.4V1.5C5.4 1.66567 5.53433 1.8 5.7 1.8C5.86567 1.8 6 1.66567 6 1.5V1.2H8.4V1.5C8.4 1.66567 8.53433 1.8 8.7 1.8C8.86567 1.8 9 1.66567 9 1.5V1.2H11.4V1.5C11.4 1.66567 11.5343 1.8 11.7 1.8C11.8657 1.8 12 1.66567 12 1.5V1.2H13.8V2.4Z" fill="#272525"/>
</svg>
