<svg width="24" height="24" viewBox="0 0 24 24" fill="none" xmlns="http://www.w3.org/2000/svg">
<path d="M8.67984 6.53906C6.94847 6.53906 5.53809 7.94944 5.53809 9.68082C5.53809 11.4158 6.94847 12.8226 8.67984 12.8226C10.4112 12.8226 11.8216 11.4158 11.8216 9.68082C11.8216 7.94944 10.4112 6.53906 8.67984 6.53906ZM8.70431 9.31769C9.74454 9.59696 9.87715 10.2323 9.88417 10.4941C9.90163 10.9863 9.55956 11.4541 9.05682 11.6321C9.02893 11.6425 8.99745 11.6461 8.96955 11.6565V12.1244H8.27139V11.6461C7.92932 11.5487 7.58024 11.3009 7.2835 10.8328L7.8629 10.4104C8.25733 11.0391 8.67624 10.976 8.84033 10.9166C9.03934 10.8468 9.19284 10.6723 9.18599 10.5222C9.18256 10.3755 9.00802 10.1731 8.53677 10.0475C7.49654 9.76483 7.36393 9.12945 7.35691 8.87141C7.33945 8.37535 7.68153 7.90754 8.18426 7.72956C8.21215 7.72255 8.24363 7.71554 8.27153 7.70868L8.27137 7.23728H8.96954V7.71897C9.30819 7.82027 9.66069 8.06104 9.95743 8.53232L9.37803 8.95122C8.9836 8.32287 8.56468 8.38925 8.40059 8.44503C8.20158 8.51484 8.04808 8.68939 8.05494 8.84336C8.05852 8.98969 8.23306 9.1887 8.70431 9.31775L8.70431 9.31769Z" fill="#272525"/>
<path d="M13.3679 14.368C13.7727 13.9666 14.1218 13.5127 14.4081 13.0206L15.4588 13.3033L15.5844 13.0454C16.0174 12.1513 16.2723 11.2018 16.3421 10.2209L16.3595 9.93121L15.3053 9.64852C15.3018 8.49997 15.0015 7.38291 14.436 6.39159L15.204 5.6236L15.0434 5.38626C14.7782 4.98483 14.464 4.60423 14.1079 4.24832C13.7554 3.89581 13.3714 3.58163 12.9734 3.3125L12.7361 3.15541L11.9681 3.92307C10.9802 3.358 9.85952 3.0577 8.71113 3.05427L8.42828 2L8.142 2.02088C7.16114 2.08369 6.208 2.33817 5.31442 2.77111L5.05604 2.89672L5.33873 3.9474C4.84658 4.23711 4.39277 4.58621 3.98775 4.99123C3.5829 5.39237 3.23381 5.8465 2.94752 6.33861L1.897 6.05638L1.77139 6.31477C1.33845 7.20834 1.08368 8.16148 1.02088 9.14235L1 9.42863L2.05427 9.71133C2.0577 10.8599 2.35442 11.9769 2.92355 12.9683L2.15557 13.7362L2.31266 13.9736C2.5779 14.3719 2.89565 14.7556 3.24816 15.112C3.60426 15.4645 3.98467 15.7784 4.3861 16.0441L4.62344 16.2046L5.39143 15.4366C6.37931 16.0022 7.49997 16.302 8.64836 16.3059L8.93106 17.3602L9.22076 17.3422C10.2016 17.2724 11.1548 17.0176 12.0449 16.5847L12.3033 16.4591L12.0206 15.4084C12.5126 15.1221 12.9664 14.773 13.3679 14.368L13.3679 14.368ZM8.66221 14.2005C6.15583 14.2005 4.12412 12.1688 4.12412 9.66238C4.12412 7.15599 6.15583 5.12428 8.66221 5.12428C11.1686 5.12428 13.2003 7.15599 13.2003 9.66238C13.2003 12.1688 11.1686 14.2005 8.66221 14.2005Z" fill="#272525"/>
<path d="M21.8857 18.0409C21.8857 17.7198 21.8474 17.3985 21.774 17.088L22.35 16.7529L22.2557 16.481C22.0567 15.9016 21.7495 15.3706 21.3481 14.9062L21.1596 14.6897L20.5767 15.0248C20.1088 14.5811 19.5469 14.2568 18.9325 14.0718V13.4085L18.6498 13.3527C18.0668 13.234 17.4106 13.234 16.8276 13.3527L16.5449 13.4085V14.0715C15.9306 14.2564 15.3684 14.581 14.9008 15.0244L14.3214 14.6894L14.1328 14.9055C13.7279 15.3664 13.4206 15.8973 13.2217 16.4803L13.124 16.7523L13.7034 17.0873C13.6302 17.3984 13.5917 17.7196 13.5917 18.0403C13.5917 18.3612 13.63 18.6827 13.7034 18.9933L13.124 19.3283L13.2217 19.6003C13.4207 20.1833 13.7279 20.7139 14.1328 21.1751L14.3214 21.3912L14.9008 21.0562C15.3686 21.4998 15.9305 21.8242 16.5449 22.0092V22.6721L16.8276 22.7279C17.1173 22.7885 17.4244 22.82 17.7386 22.82C18.0528 22.82 18.36 22.7882 18.6497 22.7288L18.9324 22.673L18.9325 22.0101C19.5468 21.8251 20.109 21.5005 20.5767 21.0571L21.1596 21.3922L21.3482 21.176C21.7496 20.7117 22.0568 20.1808 22.2558 19.6012L22.3501 19.3293L21.7741 18.9942C21.8474 18.6833 21.8857 18.3621 21.8857 18.0409L21.8857 18.0409ZM17.7386 20.4845C16.3912 20.4845 15.295 19.3883 15.295 18.0409C15.295 16.6936 16.3912 15.5974 17.7386 15.5974C19.086 15.5974 20.1822 16.6936 20.1822 18.0409C20.1822 19.3883 19.086 20.4845 17.7386 20.4845Z" fill="#272525"/>
<path d="M19.4842 10.71V11.0591H20.1823V10.71C20.1823 9.74658 20.9643 8.96455 21.9277 8.96455H22.2768V8.26638H21.9277C20.9643 8.26638 20.1823 7.48435 20.1823 6.52096V6.17188H19.4842V6.52096C19.4842 7.48435 18.7021 8.26638 17.7387 8.26638H17.3896V8.96455H17.7387C18.7021 8.96455 19.4842 9.74658 19.4842 10.71Z" fill="#272525"/>
</svg>
