<svg width="50" height="50" viewBox="0 0 50 50" fill="none" xmlns="http://www.w3.org/2000/svg">
<circle cx="25" cy="25" r="25" fill="#F9EFFF"/>
<path d="M31.3067 33.5903C31.4037 33.6344 31.5007 33.6498 31.5973 33.6498C31.8731 33.6498 32.1339 33.5007 32.2606 33.2399C33.7218 30.2954 34.0723 27.6859 33.3042 25.4793C32.6555 23.6232 31.3732 22.5712 30.6649 22.1172C30.2998 25.1143 29.3903 28.4243 27.9364 31.9804C27.914 32.0399 27.8842 32.0998 27.8545 32.1519L31.3067 33.5903Z" fill="#A601FF"/>
<path d="M10.396 25.4793C9.62832 27.6859 9.97836 30.2953 11.4323 33.2399C11.5664 33.5007 11.8276 33.6498 12.1027 33.6498C12.2004 33.6498 12.2974 33.6339 12.394 33.5903L15.8457 32.1514C15.816 32.0993 15.7862 32.0398 15.7638 31.9799C14.3099 28.4084 13.393 25.1064 13.028 22.1094C12.312 22.5796 11.0447 23.6297 10.3961 25.4792L10.396 25.4793Z" fill="#A601FF"/>
<path d="M26.8692 10.0935C24.8876 6.82904 22.4213 5.22255 22.2486 5.11127C22.0025 4.96291 21.6969 4.96291 21.4508 5.11127C21.2785 5.22255 18.8104 6.82825 16.8271 10.0927C18.3576 10.9172 20.0746 11.3665 21.8438 11.3665C23.6176 11.3669 25.3373 10.9176 26.8693 10.0935H26.8692Z" fill="#A601FF"/>
<path d="M21.8496 21.05C22.8569 21.05 23.676 20.2309 23.676 19.2236C23.676 18.2163 22.8565 17.3965 21.8496 17.3965C20.8423 17.3965 20.0225 18.2167 20.0225 19.2236C20.0225 20.2309 20.8423 21.05 21.8496 21.05Z" fill="#A601FF"/>
<path d="M14.332 19.2166C14.332 22.7429 15.2786 26.843 17.1425 31.4201C17.2533 31.696 17.53 31.8822 17.8275 31.8822H25.8647C26.1696 31.8822 26.4462 31.696 26.5571 31.4201C28.4209 26.8428 29.361 22.7349 29.361 19.2166C29.361 16.0519 28.6014 13.4659 27.5845 11.4C25.8346 12.3431 23.8688 12.8574 21.8434 12.8574C19.8216 12.8574 17.8588 12.3423 16.1105 11.3984C15.0924 13.4644 14.3321 16.0515 14.3321 19.2166H14.332ZM21.8504 15.9051C23.6798 15.9051 25.1677 17.393 25.1677 19.2224C25.1677 21.0519 23.6798 22.5405 21.8504 22.5405C20.0209 22.5405 18.5322 21.0519 18.5322 19.2224C18.5322 17.3934 20.0209 15.9051 21.8504 15.9051Z" fill="#A601FF"/>
<path d="M17.8281 33.3745C17.7832 33.3745 17.7462 33.3745 17.7013 33.3672C17.5074 34.0383 17.3807 34.8956 17.4479 35.9242C17.463 36.1328 17.5673 36.3195 17.7311 36.4311C17.9026 36.5578 18.1113 36.5953 18.3126 36.5428L19.1699 36.3191C19.1475 37.8549 19.401 40.7623 21.4588 42.1563C21.5782 42.2309 21.7123 42.2765 21.8463 42.2765C21.9881 42.2765 22.1222 42.2309 22.2339 42.1563C24.299 40.7623 24.5524 37.8549 24.5301 36.3191L25.3874 36.5428C25.5887 36.5949 25.7973 36.5578 25.9689 36.4311C26.1331 36.3195 26.2374 36.1328 26.2521 35.9242C26.3193 34.8953 26.1926 34.038 25.9986 33.3672C25.9538 33.3745 25.909 33.3745 25.8646 33.3745H17.8281Z" fill="#A601FF"/>
<path d="M33.1065 17.7729C33.4701 18.1214 33.8944 18.379 34.349 18.5457C34.8187 18.7123 35.2732 18.8032 35.7126 18.8032C35.8187 18.8032 35.9247 18.7881 36.0308 18.7729C36.137 18.7578 36.243 18.7123 36.3491 18.6668C36.44 18.6062 36.5158 18.5456 36.5763 18.4547C36.6369 18.3638 36.6672 18.2577 36.6672 18.1213C36.6672 17.8789 36.5309 17.6971 36.243 17.5607C35.955 17.4244 35.6217 17.288 35.2278 17.1516C34.8793 17.0304 34.5307 16.894 34.1519 16.7577C33.7883 16.6061 33.4549 16.4243 33.1368 16.1819C32.8337 15.9546 32.5762 15.6667 32.3792 15.3334C32.1821 15 32.0761 14.5909 32.0761 14.1061C32.0761 13.6818 32.1519 13.3031 32.2883 12.9697C32.4246 12.6364 32.6216 12.3484 32.8641 12.1212C33.1065 11.8788 33.349 11.697 33.6671 11.5454C33.9854 11.3939 34.3489 11.2879 34.6519 11.2121L34.6518 10H36.47V11.1819C36.9246 11.2424 37.3489 11.3636 37.758 11.5303C38.1672 11.697 38.546 11.9395 38.8944 12.2576L37.561 14.0152C37.3034 13.8031 37.0004 13.6213 36.6671 13.5001C36.3337 13.3789 36.0156 13.3183 35.7125 13.3183C35.5912 13.3183 35.47 13.3183 35.3337 13.3334C35.1973 13.3485 35.0761 13.3789 34.9549 13.4243C34.8336 13.4698 34.7428 13.5456 34.667 13.6364C34.5912 13.7273 34.5457 13.8486 34.5457 14.0152C34.5457 14.1516 34.5912 14.2577 34.667 14.3486C34.7427 14.4395 34.8488 14.5153 35.0003 14.591C35.1367 14.6668 35.3033 14.7274 35.47 14.8032C35.6518 14.8637 35.8337 14.9244 36.0306 14.985C36.3639 15.0911 36.7124 15.2274 37.0912 15.3638C37.4549 15.5001 37.7882 15.6971 38.1064 15.9244C38.4094 16.1516 38.667 16.4395 38.864 16.7881C39.061 17.1365 39.167 17.5608 39.167 18.076C39.167 18.47 39.0912 18.8185 38.9398 19.1367C38.7882 19.4549 38.5913 19.7276 38.3488 19.9548C38.1064 20.182 37.8185 20.3791 37.4851 20.5457C37.1518 20.6973 36.7578 20.8184 36.4548 20.8942L36.4549 22.2732H34.6822V20.9398C34.2276 20.8792 33.6063 20.7428 33.0761 20.5306C32.5457 20.3185 32.0912 20.0155 31.667 19.6064L33.1065 17.7729Z" fill="#A601FF"/>
<path d="M12.4667 40.9843C12.6687 41.1779 12.9044 41.321 13.157 41.4136C13.4179 41.5062 13.6705 41.5567 13.9145 41.5567C13.9735 41.5567 14.0324 41.5483 14.0914 41.5399C14.1503 41.5315 14.2092 41.5062 14.2682 41.4809C14.3187 41.4473 14.3608 41.4135 14.3944 41.3631C14.428 41.3126 14.4449 41.2536 14.4449 41.1779C14.4449 41.0432 14.3691 40.9422 14.2092 40.8664C14.0492 40.7907 13.8641 40.7149 13.6452 40.6391C13.4516 40.5718 13.258 40.496 13.0475 40.4203C12.8455 40.3361 12.6603 40.2351 12.4835 40.1004C12.3152 39.9741 12.1721 39.8142 12.0626 39.629C11.9532 39.4438 11.8943 39.2165 11.8943 38.9472C11.8943 38.7115 11.9364 38.501 12.0121 38.3159C12.0879 38.1307 12.1973 37.9707 12.332 37.8445C12.4667 37.7098 12.6014 37.6088 12.7782 37.5246C12.955 37.4404 13.157 37.3815 13.3253 37.3394L13.3252 36.666H14.3354V37.3226C14.5879 37.3562 14.8236 37.4236 15.0509 37.5162C15.2782 37.6088 15.4886 37.7435 15.6822 37.9202L14.9415 38.8967C14.7984 38.7789 14.63 38.6779 14.4448 38.6105C14.2596 38.5432 14.0829 38.5095 13.9145 38.5095C13.8471 38.5095 13.7798 38.5095 13.704 38.5179C13.6283 38.5263 13.5609 38.5432 13.4936 38.5684C13.4262 38.5937 13.3757 38.6358 13.3336 38.6863C13.2915 38.7368 13.2663 38.8041 13.2663 38.8967C13.2663 38.9725 13.2915 39.0314 13.3336 39.0819C13.3757 39.1324 13.4346 39.1745 13.5188 39.2166C13.5946 39.2587 13.6872 39.2923 13.7798 39.3344C13.8808 39.3681 13.9818 39.4018 14.0912 39.4354C14.2764 39.4944 14.47 39.5701 14.6804 39.6459C14.8825 39.7216 15.0677 39.8311 15.2444 39.9573C15.4128 40.0836 15.5559 40.2435 15.6653 40.4372C15.7748 40.6308 15.8337 40.8665 15.8337 41.1527C15.8337 41.3716 15.7916 41.5652 15.7074 41.7419C15.6232 41.9187 15.5138 42.0702 15.3791 42.1965C15.2444 42.3227 15.0845 42.4322 14.8993 42.5248C14.7141 42.609 14.4952 42.6762 14.3269 42.7183L14.327 43.4844H13.3421V42.7437C13.0895 42.71 12.7444 42.6342 12.4498 42.5164C12.1552 42.3985 11.9027 42.2302 11.667 42.0029L12.4667 40.9843Z" fill="#A601FF"/>
</svg>
