<svg width="50" height="50" viewBox="0 0 50 50" fill="none" xmlns="http://www.w3.org/2000/svg">
<circle cx="25" cy="25" r="25" fill="#E8F5FF"/>
<path fill-rule="evenodd" clip-rule="evenodd" d="M18.2584 8.33408C17.875 8.33408 17.5261 8.68301 17.5261 9.06642V11.6298H15.695C15.3116 11.6298 14.9627 11.9787 14.9627 12.3621V15.2918H12.3993C12.0136 15.2882 11.6708 15.643 11.667 16.0241V39.8274C11.6647 40.2123 12.0098 40.5636 12.3993 40.5597H31.4419C31.8315 40.5633 32.1765 40.2123 32.1743 39.8274V36.8977H34.3716C34.7612 36.9013 35.1178 36.5503 35.1155 36.1653L35.104 33.602H37.3013C37.6847 33.602 38.0337 33.253 38.0337 32.8696V15.6581C38.0337 15.348 37.9246 15.1467 37.7706 14.9484L32.8382 8.76875C32.7025 8.60935 32.3245 8.33628 31.8082 8.33398L18.2584 8.33408ZM18.9907 9.79876H31.4417V13.4608L30.1256 11.9961C29.9655 11.8033 29.7935 11.6298 29.6106 11.6298H18.9907V9.79876ZM32.9065 11.2634L35.8362 14.9255H32.9065V11.2634ZM16.4273 13.0945H28.8782V17.8552L27.0472 15.6578C26.8378 15.3988 26.5759 15.2915 26.3149 15.2915H16.4274V13.0942L16.4273 13.0945ZM30.343 14.5591L32.9064 18.2212H30.343V14.5591ZM33.6387 16.3902H36.5684V32.1369H35.1038V18.9536C35.1038 18.5873 35.0465 18.2554 34.7374 17.8549L33.6387 16.3902ZM27.0471 17.8548L29.9768 21.8832H27.0471V17.8548ZM15.9923 18.9535L15.9926 18.9538C16.0153 18.9527 16.0383 18.9527 16.0613 18.9538H20.4557C20.86 18.9538 21.188 19.2818 21.188 19.6864V24.0807C21.188 24.4851 20.86 24.8131 20.4557 24.8131H16.0613C15.6567 24.8131 15.329 24.4851 15.3287 24.0807V19.6864C15.3272 19.307 15.615 18.9895 15.9926 18.9538L15.9923 18.9535ZM30.3429 19.6859H33.6386V35.4326H32.1739V22.2493C32.1739 22.0153 31.9287 21.6906 31.8076 21.5169L30.3429 19.6859ZM15.9923 26.6437L15.9926 26.644C16.0153 26.643 16.0383 26.643 16.0613 26.644H28.146H28.1457C28.3409 26.6412 28.5289 26.717 28.6679 26.8547C28.8068 26.9924 28.885 27.1804 28.885 27.3763C28.885 27.5725 28.8068 27.7603 28.6679 27.898C28.5289 28.0356 28.3409 28.1115 28.1457 28.1087H16.061H16.0613C15.6587 28.1279 15.3172 27.8154 15.298 27.4108C15.2791 27.0064 15.59 26.6631 15.9926 26.6439L15.9923 26.6437ZM15.9923 29.5734L15.9926 29.5737C16.0153 29.5726 16.0383 29.5726 16.0613 29.5737H28.146H28.1457C28.3409 29.5709 28.5289 29.6467 28.6679 29.7844C28.8068 29.9221 28.885 30.1101 28.885 30.306C28.885 30.5022 28.8068 30.69 28.6679 30.8276C28.5289 30.9653 28.3409 31.0412 28.1457 31.0384H16.061H16.0613C15.6587 31.0575 15.3172 30.7449 15.298 30.3405C15.2791 29.9361 15.59 29.5928 15.9926 29.5736L15.9923 29.5734ZM15.9923 32.5031L15.9926 32.5034C16.0153 32.5021 16.0383 32.5021 16.0613 32.5034H28.146H28.1457C28.3409 32.5005 28.5289 32.5764 28.6679 32.7141C28.8068 32.8518 28.885 33.0395 28.885 33.2357C28.885 33.4316 28.8068 33.6196 28.6679 33.7573C28.5289 33.895 28.3409 33.9709 28.1457 33.9681H16.061H16.0613C15.6587 33.987 15.3172 33.6746 15.298 33.2702C15.2791 32.8658 15.59 32.5222 15.9926 32.5033L15.9923 32.5031ZM15.9923 35.4328H15.9926C16.0153 35.4318 16.0383 35.4318 16.0613 35.4328H28.146H28.1457C28.3409 35.4302 28.5289 35.5061 28.6679 35.6438C28.8068 35.7815 28.885 35.9692 28.885 36.1654C28.885 36.3613 28.8068 36.5493 28.6679 36.687C28.5289 36.8245 28.3409 36.9006 28.1457 36.8978H16.061H16.0613C15.6587 36.9167 15.3172 36.6043 15.298 36.1999C15.2791 35.7953 15.59 35.4519 15.9926 35.4328L15.9923 35.4328Z" fill="#248CD8"/>
</svg>
