<svg width="50" height="50" viewBox="0 0 50 50" fill="none" xmlns="http://www.w3.org/2000/svg">
<circle cx="25" cy="25" r="25" fill="#ECFFF2"/>
<path d="M14.2709 28.778V26.9963C14.2709 26.5297 14.6485 26.148 15.1192 26.148H24.4509V28.7778C24.7225 28.7228 25.0066 28.6929 25.2992 28.6929C25.5877 28.6929 25.8717 28.7225 26.1474 28.7778L26.1477 26.148H35.9036C36.3702 26.148 36.7519 26.5297 36.7519 26.9963V28.7778C37.0235 28.7228 37.3076 28.6929 37.6002 28.6929C37.8886 28.6929 38.1727 28.7225 38.4484 28.7778L38.4487 26.9963C38.4487 25.5924 37.3034 24.4511 35.9036 24.4511L26.1476 24.4514V21.9062H24.4511V24.4514H15.1194C13.7155 24.4514 12.5742 25.5923 12.5742 26.9966V28.7781C12.8458 28.7231 13.1299 28.6932 13.4225 28.6932C13.711 28.6932 13.9953 28.7228 14.2707 28.7781L14.2709 28.778Z" fill="#10A242"/>
<path d="M27.722 36.4102C27.0347 36.8936 26.1992 37.178 25.2999 37.178C24.3963 37.178 23.5608 36.8936 22.8737 36.4102C21.3509 36.7454 20.21 38.1026 20.21 39.7228V41.4193C20.21 41.8859 20.5875 42.2676 21.0582 42.2676H29.5416C30.0082 42.2676 30.3899 41.8859 30.3899 41.4193V39.7228C30.3899 38.1025 29.2446 36.7453 27.7219 36.4102H27.722Z" fill="#10A242"/>
<path d="M39.9043 36.4896C39.2383 36.9224 38.4495 37.1769 37.6009 37.1769C36.6636 37.1769 35.7981 36.8671 35.0939 36.3496C33.4059 36.5404 32.0869 37.9784 32.0869 39.7218V41.4183C32.0869 41.8849 32.4645 42.2666 32.9352 42.2666H41.4186C41.8852 42.2666 42.2668 41.8849 42.2668 41.4183V39.7218C42.2668 38.2119 41.27 36.9266 39.9043 36.4896V36.4896Z" fill="#10A242"/>
<path d="M15.8451 36.4102C15.158 36.8936 14.3222 37.178 13.423 37.178C12.5193 37.178 11.6838 36.8936 10.9968 36.4102C9.47395 36.7454 8.33301 38.1026 8.33301 39.7228V41.4193C8.33301 41.8859 8.71055 42.2676 9.18127 42.2676H17.6647C18.1313 42.2676 18.5129 41.8859 18.5129 41.4193V39.7228C18.5129 38.1025 17.3679 36.7453 15.845 36.4102H15.8451Z" fill="#10A242"/>
<path d="M27.8442 32.9358C27.8442 34.3412 26.7048 35.4807 25.2991 35.4807C23.8933 35.4807 22.7539 34.3412 22.7539 32.9358C22.7539 31.5301 23.8933 30.3906 25.2991 30.3906C26.7048 30.3906 27.8442 31.5301 27.8442 32.9358Z" fill="#10A242"/>
<path d="M21.0573 20.2112H29.5407C30.0073 20.2112 30.389 19.8295 30.389 19.363V17.6664C30.389 16.0462 29.2437 14.6888 27.721 14.3538C27.0337 14.837 26.1982 15.1213 25.2989 15.1213C24.3953 15.1213 23.5598 14.837 22.8728 14.3535C21.3499 14.6885 20.209 16.046 20.209 17.6661V19.3627C20.209 19.8296 20.5865 20.2112 21.0572 20.2112H21.0573Z" fill="#10A242"/>
<path d="M27.8442 10.8792C27.8442 12.2846 26.7048 13.424 25.2991 13.424C23.8933 13.424 22.7539 12.2846 22.7539 10.8792C22.7539 9.47341 23.8933 8.33398 25.2991 8.33398C26.7048 8.33398 27.8442 9.47341 27.8442 10.8792Z" fill="#10A242"/>
<path d="M40.1457 32.9358C40.1457 34.3412 39.0063 35.4807 37.6005 35.4807C36.1951 35.4807 35.0557 34.3412 35.0557 32.9358C35.0557 31.5301 36.1951 30.3906 37.6005 30.3906C39.0063 30.3906 40.1457 31.5301 40.1457 32.9358Z" fill="#10A242"/>
<path d="M15.968 32.9358C15.968 34.3412 14.8285 35.4807 13.4228 35.4807C12.0174 35.4807 10.8779 34.3412 10.8779 32.9358C10.8779 31.5301 12.0174 30.3906 13.4228 30.3906C14.8285 30.3906 15.968 31.5301 15.968 32.9358Z" fill="#10A242"/>
</svg>
