<svg width="50" height="50" viewBox="0 0 50 50" fill="none" xmlns="http://www.w3.org/2000/svg">
<circle cx="25" cy="25" r="25" fill="#F9EFFF"/>
<path d="M30.5495 16.9844C28.6935 17.2723 26.7736 17.4324 24.8535 17.4324C22.9334 17.4324 21.0136 17.2723 19.1575 16.9844C15.6696 19.3844 13.3335 23.8964 13.3335 29.1124C13.3335 36.8244 18.4855 39.4164 24.8535 39.4164C31.2215 39.4164 36.3735 36.8244 36.3735 29.1124C36.3735 23.8963 34.0373 19.3844 30.5495 16.9844ZM25.9736 33.4644V34.6483C25.9736 34.9043 25.7816 35.0963 25.5256 35.0963H24.2136C23.9575 35.0963 23.7656 34.9043 23.7656 34.6483V33.4963C22.4216 33.3363 21.3336 32.2483 21.2055 30.8722C21.2055 30.7443 21.2374 30.6162 21.3334 30.5202C21.4294 30.4242 21.5575 30.3601 21.6854 30.3601H23.0294C23.2535 30.3601 23.4134 30.5202 23.4774 30.7122C23.5415 31.0322 23.8294 31.288 24.1814 31.288H25.3334C25.9415 31.288 26.4535 30.8401 26.5174 30.2961C26.5493 29.976 26.4533 29.6562 26.2294 29.432C26.0053 29.2079 25.7174 29.08 25.3975 29.08H24.5334C22.7415 29.08 21.2055 27.768 21.0455 26.072C20.8854 24.3119 22.0696 22.776 23.7656 22.4559V21.3039C23.7656 21.0479 23.9576 20.8559 24.2136 20.8559H25.5256C25.7817 20.8559 25.9736 21.0479 25.9736 21.3039V22.4559C27.3495 22.616 28.4056 23.7039 28.5337 25.08C28.5337 25.2079 28.5018 25.3361 28.4058 25.432C28.3098 25.528 28.1817 25.5921 28.0538 25.5921H26.7098C26.4857 25.5921 26.2937 25.432 26.2618 25.2401C26.1977 24.92 25.9098 24.6642 25.5578 24.6642H24.4058C23.7977 24.6642 23.2857 25.1122 23.2218 25.6561C23.1899 25.9762 23.2859 26.2961 23.5098 26.5202C23.7339 26.7443 24.0218 26.9041 24.3417 26.9041H25.3337C26.2616 26.9041 27.1897 27.3202 27.8297 27.9921C28.4696 28.6961 28.7897 29.624 28.6937 30.584C28.5656 31.9604 27.4455 33.1443 25.9736 33.4644V33.4644Z" fill="#A601FF"/>
<path d="M19.9893 14.7763C21.4933 15.0004 23.1252 15.1283 24.8533 15.1283C26.5812 15.1283 28.2134 15.0004 29.7174 14.7763L30.9332 10.4884C31.1893 9.59238 30.3573 8.79238 29.4611 9.04843C26.4533 10.0083 23.2531 10.0083 20.2451 9.08035C19.3491 8.7924 18.5172 9.62432 18.773 10.5203L19.9893 14.7763Z" fill="#A601FF"/>
</svg>
