<svg width="24" height="24" viewBox="0 0 24 24" fill="none" xmlns="http://www.w3.org/2000/svg">
<path d="M4 7.8768H8.8768L8.87693 3H4.00013L4 7.8768ZM5.53603 4.53607H7.34087V6.3409H5.53603V4.53607Z" fill="#272525"/>
<path d="M10.7393 3H19.9937V4.53603H10.7393V3Z" fill="#272525"/>
<path d="M10.7393 6.33984H18.1313V7.87588H10.7393V6.33984Z" fill="#272525"/>
<path d="M4 14.5584H8.8768L8.87693 9.68164H4.00013L4 14.5584ZM5.53603 11.2176H7.34087V13.0224H5.53603V11.2176Z" fill="#272525"/>
<path d="M10.7393 9.68164H19.9937V11.2177H10.7393V9.68164Z" fill="#272525"/>
<path d="M10.7393 13.0215H18.1313V14.5575H10.7393V13.0215Z" fill="#272525"/>
<path d="M4 21.2401H8.8768L8.87693 16.3633H4.00013L4 21.2401ZM5.53603 17.8992H7.34087V19.7041H5.53603V17.8992Z" fill="#272525"/>
<path d="M10.7393 16.3633H19.9937V17.8993H10.7393V16.3633Z" fill="#272525"/>
<path d="M10.7393 19.7031H18.1313V21.2392H10.7393V19.7031Z" fill="#272525"/>
</svg>
